<?xml version="1.0" encoding="UTF-8"?>
<svg width="786.93" height="241.64" clip-rule="evenodd" fill-rule="evenodd" stroke-linecap="round" stroke-linejoin="round" stroke-miterlimit="1.5" version="1.1" viewBox="0 0 786.93 241.64" xml:space="preserve" xmlns="http://www.w3.org/2000/svg"><path d="m-202.68-283.06h1743.4v840h-1743.4z" fill="none"/><path d="M 63.694,31.847 A 31.847,31.847 0 0 1 31.847,63.694 31.847,31.847 0 0 1 0,31.847 31.847,31.847 0 0 1 31.847,0 31.847,31.847 0 0 1 63.694,31.847 Z" fill="#0074e2"/><g fill="none" stroke="#000"><g stroke-width="20.19px"><path d="m31.847 120.44v-79.785"/><path d="m633.55 159.87v-138.54"/><path d="m162.82 159.9a71.643 71.643 0 0 1-71.643 71.643 71.643 71.643 0 0 1-71.643-71.643 71.643 71.643 0 0 1 71.643-71.643 71.643 71.643 0 0 1 71.643 71.643z"/><path d="m776.83 159.9a71.643 71.643 0 0 1-71.643 71.643 71.643 71.643 0 0 1-71.643-71.643 71.643 71.643 0 0 1 71.643-71.643 71.643 71.643 0 0 1 71.643 71.643z"/></g><g stroke-width="20.2px"><path d="m338.43 159.9a71.643 71.643 0 0 1-71.643 71.643 71.643 71.643 0 0 1-71.643-71.643 71.643 71.643 0 0 1 71.643-71.643 71.643 71.643 0 0 1 71.643 71.643z"/><path d="m483.35 201.44v-56.083c0-31.56 25.584-57.145 57.145-57.145 31.56 0 57.145 25.585 57.145 57.145v86.187"/><path d="m369.06 231.54v-86.187c0-31.56 25.585-57.145 57.145-57.145h1e-3c31.56 0 57.145 25.585 57.145 57.145v56.083"/></g></g></svg>
